
<svg enable-background="new 0 0 1600 1200" fill="none" height="1200" viewBox="0 0 1600 1200" width="1600" xmlns="http://www.w3.org/2000/svg"><path d="m1330.36 1064.38 83.77-336.76c2.43-9.76 2.15-20-.82-29.62l-141.43-458.76c-6.67-21.65-25.89-37.031-48.47-38.811l-720-56.63c-16.9-1.33-33.48 5.17-44.97 17.64l-259.58 281.72c-10.76 11.68-15.98 27.43-14.32 43.22l60.75 578.001z" fill="#f4f4f4"/><path d="m951.65 448.801h-56.15v614.709h56.15z" fill="#dadddf"/><path d="m1021.19 886.6h-95.32v106.52h95.32z" fill="#b2b6bb"/><path d="m1003.22 886.6h39.83v10.29h-1.48v96.23h-35.39v-96.23h-2.96z" fill="#858990"/><path d="m1002.75 886.6h-79.18v10.29h79.18z" fill="#b2b6bb"/><path d="m925.87 898.211h84.66l8.53-1.32h-93.19z" fill="#858990"/><path d="m1218.7 541.641h-128.56v106.52h128.56z" fill="#dadddf"/><path d="m1191.48 541.641h29.47v10.29h-2.25v96.23h-22.74v-96.23h-4.48z" fill="#b2b6bb"/><path d="m1194.41 541.641h-107.66v10.29h107.66z" fill="#b2b6bb"/><path d="m1204 551.93h-113.86v1.32h113.86z" fill="#b2b6bb"/><path d="m1246.49 448.801h-357.31v12.76h344.67v186.92h-344.67v14h344.67v401.029h12.64z" fill="#fff"/><path d="m1302.64 448.801h-56.15v614.709h56.15z" fill="#dadddf"/><path d="m895.5 1063.5v-614.711h-12.64v614.711z" fill="#fff"/><path d="m1238.86 993.119h-347.27v14.001h347.27z" fill="#fff"/><path d="m1218.56 821.391h-181.97v171.73h181.97z" fill="#dadddf"/><path d="m1189.6 821.391h31.35v16.59h-2.39v155.14h-24.2v-155.14h-4.76z" fill="#b2b6bb"/><path d="m1188.83 821.391h-155.85v16.59h155.85z" fill="#dadddf"/><path d="m1202.92 837.98h-166.33v2.13h166.33z" fill="#b2b6bb"/><path d="m412.64 1050.86c5.7 0 10.32 4.62 10.32 10.32 0 1.24-1 2.24-2.24 2.24h-16.5c-1.87 0-3.56-1.1-4.32-2.81l-21.55-48.3 24.11-27.97c-.36 1.33 10.18 66.52 10.18 66.52z" fill="#3f4249"/><path d="m293.37 1011.14h40.88l-16.43 15.8c-2.38 2.29-3.45 5.64-2.82 8.89l2.89 15.04c5.43 0 9.83 4.4 9.83 9.83v.49c0 1.24-1 2.24-2.24 2.24h-14.98c-1.8 0-3.44-1.02-4.23-2.63l-14.05-28.51c-1.87-3.79-2.3-8.13-1.22-12.22z" fill="#3f4249"/><path d="m271.11 978.861c-8.62-2.62-24.6-11.86-31.96-21.3-.58-.74-.56-1.78.04-2.5.62-.76 1.7-.96 2.56-.47 64.87 36.6 131.53-6.76 131.53-6.76.93-5.12 4.08-9.56 8.61-12.12 9.11-5.14 20.23-5.16 29.35-.05 3.17 1.78 6.94 2.13 10.37.91l10.12-3.58c1.78-.63 3.67.56 3.88 2.44l.32 2.97c.97 8.92-2.12 17.8-8.42 24.19l-43.52 44.109c-4.91 4.98-7.18 11.98-6.12 18.89l3.88 25.35c5.7 0 10.32 4.62 10.32 10.32 0 1.24-1 2.24-2.24 2.24h-16.5c-1.87 0-3.56-1.1-4.32-2.81l-21.93-49.48h-43.43l-16.43 15.8c-2.38 2.29-3.45 5.64-2.82 8.89l2.89 15.04c5.43 0 9.83 4.4 9.83 9.83 0 1.51-1.22 2.73-2.73 2.73h-14.49c-1.8 0-3.44-1.02-4.23-2.63l-14.05-28.51c-1.87-3.79-2.3-8.13-1.22-12.22z" fill="#868a91"/><path d="m405.38 942.899c.81-.81.51-2.42-.67-3.59s-2.78-1.47-3.59-.66-.51 2.42.66 3.59c1.18 1.17 2.79 1.47 3.6.66z" fill="#3f4249"/><path d="m280.84 1000.17c0 8.74-7.09 15.83-15.83 15.83-1.18 0-2.33-.13-3.44-.38l7.94-30.62c6.56 1.94 11.33 8 11.33 15.17z" fill="#3f4249"/><path d="m349.86 1017.49 2.84-1.14c3.82-1.53 8.18-.61 11.05 2.33 2.4 2.46 3.4 5.96 2.65 9.31l-.52 2.34c-.41 1.85-.3 3.79.33 5.58l.22.62c1.57 4.46.67 9.41-2.37 13.04z" fill="#3f4249"/><path d="m369.1 950.289-2.79 16.99c-1.57 9.57-10.04 15.78-18.66 13.69l-7.99-1.94c-1.81-.44-3.67-.49-5.5-.14l-17.13 3.27c-8.36 1.6-16.76-2.54-21.26-10.47l-1.41-2.48c34.96 1.08 64.23-13.08 74.74-18.92z" fill="#3f4249"/><path d="m260.54 963.059c-1.63 1.22-3.64 1.95-5.83 1.95-5.01 0-9.14-3.78-9.69-8.65 5.18 2.72 10.37 4.92 15.52 6.7z" fill="#3f4249"/><path d="m413.86 955.89c2.28-3.15 3.26-7.05 2.76-10.9l-1.03-7.84c2 .3 4.07.12 6.02-.57l10.12-3.58c1.78-.63 3.67.56 3.88 2.44l.32 2.97c.97 8.92-2.12 17.81-8.42 24.19l-12.77 12.95-1.88-3.41c-2.84-5.16-2.45-11.48 1-16.25z" fill="#b2b6bb"/><path d="m375.24 950.73-7.9 19.91c-1.98 4.7-.08 10.89 4.18 13.71 5 3.3 11.76 3.51 18.38-2.85 8.96-8.61 5.25-27.73.65-35.09" fill="#3f4249"/><path d="m303.65 1011.22 8.68-9.51-7.26 15.92z" fill="#3f4249"/><path d="m425.54 935.109 6.06-2.14c1.85-.65 3.83.59 4.04 2.54l.47 4.29c-.74.19-1.51.3-2.3.3-3.59-.01-6.7-2.03-8.27-4.99z" fill="#3f4249"/><path d="m376 948.809-8.28 20.62c-1.25 2.98-.16 6.42 2.59 8.12 4.11 2.55 10.66 4.33 17.84-2.57 7.61-7.32 6.55-22.87 1.58-29.87" fill="#868a91"/><path d="m377.7 980.349c-2.97 0-5.59-1.07-7.67-2.36-2.98-1.85-4.16-5.54-2.79-8.77l8.28-20.61c.11-.27.41-.4.68-.29s.4.41.29.68l-8.28 20.62c-1.16 2.76-.16 5.91 2.38 7.49 4.05 2.51 10.32 4.12 17.21-2.5 7.55-7.25 6.12-22.71 1.51-29.19-.17-.23-.11-.56.12-.73s.56-.11.73.12c4.93 6.93 6.41 22.81-1.64 30.54-3.87 3.71-7.55 5-10.82 5z" fill="#3f4249"/><path d="m347.08 1011.22s-9.25-10.89-34.75-9.51l-4.34 9.51z" fill="#b2b6bb"/><path d="m271.74 976.18-.63 2.68s-6.57-2.06-12.35-5.63z" fill="#3f4249"/><path d="m426.94 950.551c-1.16 0-2.42-.18-3.78-.55-.28-.08-.44-.36-.37-.64.08-.28.37-.44.64-.37 3.44.94 6.14.6 8.04-1 3.98-3.35 3.31-11.17 3.3-11.25-.03-.29.18-.54.47-.57.29-.04.54.18.57.47.03.34.73 8.45-3.67 12.14-1.39 1.18-3.14 1.77-5.2 1.77z" fill="#3f4249"/><path d="m1146.94 868.7h-698.17c-9.49 0-17.18-7.69-17.18-17.18v-519.59c0-9.49 7.69-17.18 17.18-17.18h698.17c9.49 0 17.18 7.69 17.18 17.18v519.59c-.01 9.49-7.7 17.18-17.18 17.18z" fill="#4d61fc"/><path d="m1146.94 868.7h-698.17c-9.49 0-17.18-7.69-17.18-17.18v-519.59c0-9.49 7.69-17.18 17.18-17.18h698.17c9.49 0 17.18 7.69 17.18 17.18v519.59c-.01 9.49-7.7 17.18-17.18 17.18z" fill="#fff" opacity=".6"/><path d="m1138.67 868.7h-698.17c-9.49 0-17.18-7.69-17.18-17.18v-519.59c0-9.49 7.69-17.18 17.18-17.18h698.17c9.49 0 17.18 7.69 17.18 17.18v519.59c0 9.49-7.7 17.18-17.18 17.18z" fill="#fff"/><path d="m480.37 868.7h-39.87c-9.49 0-17.18-7.69-17.18-17.18v-519.59c0-9.49 7.69-17.18 17.18-17.18h39.86v553.95z" fill="#4d61fc"/><path d="m463.67 348.021h-23.65c-1.85 0-3.36-1.5-3.36-3.36 0-1.85 1.5-3.36 3.36-3.36h23.65c1.85 0 3.36 1.5 3.36 3.36s-1.51 3.36-3.36 3.36z" fill="#fff"/><path d="m458.05 407.38h-12.42c-1.62 0-2.93-1.31-2.93-2.93v-12.42c0-1.62 1.31-2.93 2.93-2.93h12.42c1.62 0 2.93 1.31 2.93 2.93v12.42c0 1.61-1.31 2.93-2.93 2.93z" fill="#fff"/><path d="m458.05 466.7h-12.42c-1.62 0-2.93-1.31-2.93-2.93v-12.42c0-1.62 1.31-2.93 2.93-2.93h12.42c1.62 0 2.93 1.31 2.93 2.93v12.42c0 1.62-1.31 2.93-2.93 2.93z" fill="#4d61fc"/><path d="m458.05 526.02h-12.42c-1.62 0-2.93-1.31-2.93-2.93v-12.42c0-1.62 1.31-2.93 2.93-2.93h12.42c1.62 0 2.93 1.31 2.93 2.93v12.42c0 1.62-1.31 2.93-2.93 2.93z" fill="#4d61fc"/><path d="m458.05 585.34h-12.42c-1.62 0-2.93-1.31-2.93-2.93v-12.41c0-1.62 1.31-2.93 2.93-2.93h12.42c1.62 0 2.93 1.31 2.93 2.93v12.42c0 1.61-1.31 2.92-2.93 2.92z" fill="#4d61fc"/><path d="m458.05 466.7h-12.42c-1.62 0-2.93-1.31-2.93-2.93v-12.42c0-1.62 1.31-2.93 2.93-2.93h12.42c1.62 0 2.93 1.31 2.93 2.93v12.42c0 1.62-1.31 2.93-2.93 2.93z" fill="#fff" opacity=".4"/><path d="m458.05 526.02h-12.42c-1.62 0-2.93-1.31-2.93-2.93v-12.42c0-1.62 1.31-2.93 2.93-2.93h12.42c1.62 0 2.93 1.31 2.93 2.93v12.42c0 1.62-1.31 2.93-2.93 2.93z" fill="#fff" opacity=".4"/><path d="m458.05 585.34h-12.42c-1.62 0-2.93-1.31-2.93-2.93v-12.41c0-1.62 1.31-2.93 2.93-2.93h12.42c1.62 0 2.93 1.31 2.93 2.93v12.42c0 1.61-1.31 2.92-2.93 2.92z" fill="#fff" opacity=".4"/><path d="m571.68 350.169h-68.74c-3.21 0-5.82-2.6-5.82-5.82 0-3.21 2.6-5.82 5.82-5.82h68.74c3.21 0 5.82 2.6 5.82 5.82 0 3.21-2.61 5.82-5.82 5.82z" fill="#868a91"/><path d="m1132.47 355.61h-60.7c-1.9 0-3.44-1.54-3.44-3.44v-15.65c0-1.9 1.54-3.44 3.44-3.44h60.7c1.9 0 3.44 1.54 3.44 3.44v15.65c0 1.9-1.54 3.44-3.44 3.44z" fill="#4d61fc"/><path d="m1046.4 356.11h-60.7c-2.17 0-3.94-1.77-3.94-3.94v-15.65c0-2.17 1.77-3.94 3.94-3.94h60.7c2.17 0 3.94 1.77 3.94 3.94v15.65c0 2.17-1.77 3.94-3.94 3.94zm-60.7-22.52c-1.62 0-2.94 1.32-2.94 2.94v15.65c0 1.62 1.32 2.94 2.94 2.94h60.7c1.62 0 2.94-1.32 2.94-2.94v-15.65c0-1.62-1.32-2.94-2.94-2.94z" fill="#4d61fc"/><path d="m451.85 842.49c-8.69 0-15.74-7.05-15.74-15.74s7.05-15.74 15.74-15.74 15.74 7.05 15.74 15.74c-.01 8.69-7.05 15.74-15.74 15.74z" fill="#fff"/><path d="m451.85 827.209c-2.35 0-4.31-1.79-4.52-4.12l-.3-3.27c-.25-2.66 1.85-4.96 4.52-4.96h.61c2.68 0 4.77 2.3 4.52 4.96l-.3 3.27c-.23 2.33-2.19 4.12-4.53 4.12z" fill="#4d61fc"/><path d="m465.17 835.12c-.63 1-1.37 1.93-2.2 2.76-2.85 2.84-6.78 4.61-11.13 4.61-5.62 0-10.54-2.94-13.33-7.37.77-3.5 3.9-6.12 7.63-6.12h11.4c3.74 0 6.86 2.62 7.63 6.12z" fill="#4d61fc"/><g fill="#fff" opacity=".4"><path d="m451.85 827.209c-2.35 0-4.31-1.79-4.52-4.12l-.3-3.27c-.25-2.66 1.85-4.96 4.52-4.96h.61c2.68 0 4.77 2.3 4.52 4.96l-.3 3.27c-.23 2.33-2.19 4.12-4.53 4.12z" opacity=".4"/><path d="m465.17 835.12c-.63 1-1.37 1.93-2.2 2.76-2.85 2.84-6.78 4.61-11.13 4.61-5.62 0-10.54-2.94-13.33-7.37.77-3.5 3.9-6.12 7.63-6.12h11.4c3.74 0 6.86 2.62 7.63 6.12z" opacity=".4"/></g><path d="m692.11 494.59h-186.01c-4.96 0-8.99-4.02-8.99-8.99v-98.38c0-4.96 4.02-8.99 8.99-8.99h186.01c4.96 0 8.99 4.02 8.99 8.99v98.38c0 4.96-4.02 8.99-8.99 8.99z" fill="#4d61fc"/><path d="m692.11 494.59h-186.01c-4.96 0-8.99-4.02-8.99-8.99v-98.38c0-4.96 4.02-8.99 8.99-8.99h186.01c4.96 0 8.99 4.02 8.99 8.99v98.38c0 4.96-4.02 8.99-8.99 8.99z" fill="#fff" opacity=".5"/><path d="m638.82 467.211h-114.69c-2.48 0-4.49-2.01-4.49-4.49v-14.01c0-2.48 2.01-4.49 4.49-4.49h114.69c2.48 0 4.49 2.01 4.49 4.49v14.01c0 2.48-2.01 4.49-4.49 4.49z" fill="#fff"/><path d="m663.51 421.85h-93.85c-2.17 0-3.93-1.76-3.93-3.93s1.76-3.93 3.93-3.93h93.85c2.17 0 3.93 1.76 3.93 3.93s-1.76 3.93-3.93 3.93z" fill="#4d61fc"/><path d="m663.51 421.85h-93.85c-2.17 0-3.93-1.76-3.93-3.93s1.76-3.93 3.93-3.93h93.85c2.17 0 3.93 1.76 3.93 3.93s-1.76 3.93-3.93 3.93z" fill="#fff" opacity=".3"/><path d="m535.69 433.969c8.86 0 16.05-7.19 16.05-16.05s-7.19-16.05-16.05-16.05-16.05 7.19-16.05 16.05c0 8.87 7.19 16.05 16.05 16.05z" fill="#4d61fc"/><path d="m535.69 433.969c8.86 0 16.05-7.19 16.05-16.05s-7.19-16.05-16.05-16.05-16.05 7.19-16.05 16.05c0 8.87 7.19 16.05 16.05 16.05z" fill="#fff" opacity=".3"/><path d="m909.44 494.589h-185.66c-4.95 0-8.97-4.02-8.97-8.97v-98.2c0-4.95 4.02-8.97 8.97-8.97h185.66c4.95 0 8.97 4.02 8.97 8.97v98.2c0 4.95-4.02 8.97-8.97 8.97z" fill="#4d61fc"/><path d="m856.24 467.26h-114.47c-2.48 0-4.48-2.01-4.48-4.48v-13.98c0-2.48 2.01-4.48 4.48-4.48h114.47c2.48 0 4.48 2.01 4.48 4.48v13.98c.01 2.47-2 4.48-4.48 4.48z" fill="#fff"/><path d="m880.89 421.99h-93.67c-2.17 0-3.92-1.76-3.92-3.92 0-2.17 1.76-3.92 3.92-3.92h93.67c2.17 0 3.92 1.76 3.92 3.92s-1.76 3.92-3.92 3.92z" fill="#4d61fc"/><path d="m880.89 421.99h-93.67c-2.17 0-3.92-1.76-3.92-3.92 0-2.17 1.76-3.92 3.92-3.92h93.67c2.17 0 3.92 1.76 3.92 3.92s-1.76 3.92-3.92 3.92z" fill="#fff" opacity=".3"/><path d="m753.31 434.091c8.85 0 16.02-7.17 16.02-16.02s-7.17-16.02-16.02-16.02-16.02 7.17-16.02 16.02 7.17 16.02 16.02 16.02z" fill="#4d61fc"/><path d="m753.31 434.091c8.85 0 16.02-7.17 16.02-16.02s-7.17-16.02-16.02-16.02-16.02 7.17-16.02 16.02 7.17 16.02 16.02 16.02z" fill="#fff" opacity=".3"/><path d="m1126.94 494.589h-185.66c-4.95 0-8.97-4.02-8.97-8.97v-98.2c0-4.95 4.02-8.97 8.97-8.97h185.66c4.95 0 8.97 4.02 8.97 8.97v98.2c0 4.95-4.02 8.97-8.97 8.97z" fill="#b2b6bb"/><path d="m1073.74 467.26h-114.47c-2.48 0-4.48-2.01-4.48-4.48v-13.98c0-2.48 2.01-4.48 4.48-4.48h114.47c2.48 0 4.48 2.01 4.48 4.48v13.98c.01 2.47-2 4.48-4.48 4.48z" fill="#fff"/><path d="m1098.39 421.99h-93.67c-2.17 0-3.92-1.76-3.92-3.92 0-2.17 1.76-3.92 3.92-3.92h93.67c2.17 0 3.92 1.76 3.92 3.92s-1.76 3.92-3.92 3.92z" fill="#4d61fc"/><path d="m1098.39 421.99h-93.67c-2.17 0-3.92-1.76-3.92-3.92 0-2.17 1.76-3.92 3.92-3.92h93.67c2.17 0 3.92 1.76 3.92 3.92s-1.76 3.92-3.92 3.92z" fill="#868a91"/><path d="m970.81 434.091c8.85 0 16.02-7.17 16.02-16.02s-7.17-16.02-16.02-16.02-16.02 7.17-16.02 16.02 7.17 16.02 16.02 16.02z" fill="#868a91"/><path d="m1126.94 766.86h-185.66c-4.95 0-8.97-4.02-8.97-8.97v-240.6c0-4.95 4.02-8.97 8.97-8.97h185.66c4.95 0 8.97 4.02 8.97 8.97v240.6c0 4.96-4.02 8.97-8.97 8.97z" fill="#4d61fc"/><path d="m1126.94 766.86h-185.66c-4.95 0-8.97-4.02-8.97-8.97v-240.6c0-4.95 4.02-8.97 8.97-8.97h185.66c4.95 0 8.97 4.02 8.97 8.97v240.6c0 4.96-4.02 8.97-8.97 8.97z" fill="#fff" opacity=".85"/><path d="m1080.47 572.179-.92-.99-17.24 16.09.92.99c6.92 7.4 10.73 17.05 10.73 27.2 0 21.97-17.88 39.85-39.85 39.85-9.32 0-18.38-3.28-25.51-9.23l-1.04-.87-15.08 18.11 1.041.87c11.359 9.48 25.769 14.7 40.599 14.7 34.98 0 63.44-28.45 63.44-63.43-.01-16.13-6.08-31.51-17.09-43.29z" fill="#4d61fc"/><path d="m1080.47 572.179-.92-.99-17.24 16.09.92.99c6.92 7.4 10.73 17.05 10.73 27.2 0 21.97-17.88 39.85-39.85 39.85-9.32 0-18.38-3.28-25.51-9.23l-1.04-.87-15.08 18.11 1.041.87c11.359 9.48 25.769 14.7 40.599 14.7 34.98 0 63.44-28.45 63.44-63.43-.01-16.13-6.08-31.51-17.09-43.29z" fill="#fff" opacity=".5"/><path d="m1080.47 572.18c-7.65-8.2-17.29-14.2-27.95-17.42l.01-.02-1.3-.37c-.01 0-.02-.001-.03-.011l-1.28-.359-.01.02c-5.13-1.32-10.44-2-15.81-2-16.49 0-32.12 6.3-43.99 17.74l-.97.94 16.35 16.98.97-.94c7.46-7.19 17.28-11.141 27.64-11.141 3.64 0 7.26.491 10.76 1.461 7.03 1.98 13.38 5.85 18.37 11.2l.92.99 17.24-16.091z" fill="#4d61fc"/><path d="m1008.59 646.09c-9.11-7.61-14.34-18.77-14.34-30.62 0-10.93 4.34-21.13 12.21-28.72l.97-.94-16.35-16.98-.97.94c-12.54 12.06-19.45 28.29-19.45 45.69 0 18.88 8.32 36.64 22.84 48.73l1.04.87 15.08-18.11z" fill="#61656d"/><path d="m1048.85 624.791h-29.49c-2.8 0-5.07-2.27-5.07-5.07v-8.51c0-2.8 2.27-5.07 5.07-5.07h29.49c2.8 0 5.07 2.27 5.07 5.07v8.51c.01 2.8-2.27 5.07-5.07 5.07z" fill="#4d61fc"/><path d="m1048.85 624.791h-29.49c-2.8 0-5.07-2.27-5.07-5.07v-8.51c0-2.8 2.27-5.07 5.07-5.07h29.49c2.8 0 5.07 2.27 5.07 5.07v8.51c.01 2.8-2.27 5.07-5.07 5.07z" fill="#fff" opacity=".4"/><path d="m647.13 848.1h-138.41c-2.37 0-4.29-1.92-4.29-4.29v-59.2c0-2.37 1.92-4.29 4.29-4.29h138.42c2.37 0 4.29 1.92 4.29 4.29v59.2c0 2.37-1.92 4.29-4.3 4.29z" fill="#4d61fc"/><path d="m808.63 848.1h-138.42c-2.37 0-4.29-1.92-4.29-4.29v-59.2c0-2.37 1.92-4.29 4.29-4.29h138.42c2.37 0 4.29 1.92 4.29 4.29v59.2c0 2.37-1.92 4.29-4.29 4.29z" fill="#4d61fc"/><path d="m970.12 848.1h-138.42c-2.37 0-4.29-1.92-4.29-4.29v-59.2c0-2.37 1.92-4.29 4.29-4.29h138.42c2.37 0 4.29 1.92 4.29 4.29v59.2c0 2.37-1.92 4.29-4.29 4.29z" fill="#4d61fc"/><path d="m1131.61 848.1h-138.42c-2.37 0-4.29-1.92-4.29-4.29v-59.2c0-2.37 1.92-4.29 4.29-4.29h138.42c2.37 0 4.29 1.92 4.29 4.29v59.2c.01 2.37-1.92 4.29-4.29 4.29z" fill="#4d61fc"/><path d="m647.13 848.1h-138.41c-2.37 0-4.29-1.92-4.29-4.29v-59.2c0-2.37 1.92-4.29 4.29-4.29h138.42c2.37 0 4.29 1.92 4.29 4.29v59.2c0 2.37-1.92 4.29-4.3 4.29z" fill="#fff" opacity=".7225"/><path d="m808.63 848.1h-138.42c-2.37 0-4.29-1.92-4.29-4.29v-59.2c0-2.37 1.92-4.29 4.29-4.29h138.42c2.37 0 4.29 1.92 4.29 4.29v59.2c0 2.37-1.92 4.29-4.29 4.29z" fill="#fff" opacity=".7225"/><path d="m970.12 848.1h-138.42c-2.37 0-4.29-1.92-4.29-4.29v-59.2c0-2.37 1.92-4.29 4.29-4.29h138.42c2.37 0 4.29 1.92 4.29 4.29v59.2c0 2.37-1.92 4.29-4.29 4.29z" fill="#fff" opacity=".7225"/><path d="m1131.61 848.1h-138.42c-2.37 0-4.29-1.92-4.29-4.29v-59.2c0-2.37 1.92-4.29 4.29-4.29h138.42c2.37 0 4.29 1.92 4.29 4.29v59.2c.01 2.37-1.92 4.29-4.29 4.29z" fill="#fff" opacity=".7225"/><path d="m909.33 766.8h-400.51c-4.95 0-8.97-4.01-8.97-8.97v-240.54c0-4.95 4.01-8.97 8.97-8.97h400.51c4.95 0 8.97 4.01 8.97 8.97v240.54c0 4.96-4.02 8.97-8.97 8.97z" fill="#4d61fc"/><path d="m909.33 766.8h-400.51c-4.95 0-8.97-4.01-8.97-8.97v-240.54c0-4.95 4.01-8.97 8.97-8.97h400.51c4.95 0 8.97 4.01 8.97 8.97v240.54c0 4.96-4.02 8.97-8.97 8.97z" fill="#fff" opacity=".85"/><g fill="#4d61fc"><path d="m918.3 695.109h-418.22v.91h418.22z" opacity=".2"/><path d="m918.3 625.381h-418.22v.91h418.22z" opacity=".2"/><path d="m918.3 555.641h-418.22v.91h418.22z" opacity=".2"/><path d="m500.08 660.621s59.17 22.06 101.3 0 87.59-72.4 149.44-20.06c51.45 43.54 75.89-52.34 109.99-52.34s57.5 64.71 57.5 64.71v104.91c0 4.95-4.01 8.97-8.97 8.97h-400.5c-4.96 0-8.98-4.03-8.97-8.98z" opacity=".4"/><path d="m556.21 671.331c-6.51 0-13.63-.46-21.41-1.53-19.93-2.74-34.9-8.27-35.05-8.32l.64-1.71c.15.05 14.96 5.52 34.7 8.23 18.16 2.49 44.32 3.1 65.86-8.18 7.87-4.12 15.74-9.16 24.08-14.5 35.44-22.69 75.61-48.41 126.37-5.45 9.72 8.22 18.84 11.82 27.9 11.01 16.81-1.51 30.46-18.07 43.65-34.08 12.5-15.17 24.3-29.49 37.85-29.49 34.35 0 57.4 62.64 58.36 65.31l-1.72.62c-.06-.16-5.94-16.29-15.89-32.2-16.49-26.37-31.26-31.9-40.75-31.9-12.68 0-24.22 14-36.44 28.83-13.43 16.3-27.32 33.16-44.9 34.74-9.56.86-19.13-2.88-29.24-11.44-22.22-18.81-44.26-25.85-67.37-21.53-20.42 3.81-38.93 15.66-56.83 27.13-8.37 5.36-16.28 10.42-24.21 14.58-9.32 4.85-24.13 9.88-45.6 9.88z"/><path d="m708.7 621.381c1.64 0 2.96-1.32 2.96-2.96s-1.32-2.96-2.96-2.96-2.96 1.33-2.96 2.96 1.33 2.96 2.96 2.96z"/><path d="m778.82 654.92c1.64 0 2.96-1.33 2.96-2.96 0-1.64-1.33-2.96-2.96-2.96s-2.96 1.33-2.96 2.96 1.33 2.96 2.96 2.96z"/><path d="m862.24 591.18c1.64 0 2.96-1.33 2.96-2.96s-1.33-2.96-2.96-2.96-2.96 1.33-2.96 2.96 1.32 2.96 2.96 2.96z"/><path d="m639.05 641c1.64 0 2.96-1.33 2.96-2.96s-1.33-2.96-2.96-2.96-2.96 1.33-2.96 2.96 1.33 2.96 2.96 2.96z"/><path d="m569.6 672.619c1.64 0 2.96-1.32 2.96-2.96s-1.33-2.96-2.96-2.96-2.96 1.33-2.96 2.96 1.33 2.96 2.96 2.96z"/><path d="m500.08 664.01c1.64 0 2.96-1.33 2.96-2.96s-1.33-2.96-2.96-2.96-2.96 1.32-2.96 2.96 1.33 2.96 2.96 2.96z"/><path d="m918.3 654.92c1.64 0 2.96-1.33 2.96-2.96 0-1.64-1.33-2.96-2.96-2.96s-2.96 1.33-2.96 2.96 1.32 2.96 2.96 2.96z"/></g><path d="m643.27 535.04h-124.94c-3.21 0-5.82-2.6-5.82-5.82 0-3.21 2.6-5.82 5.82-5.82h124.93c3.21 0 5.82 2.6 5.82 5.82.01 3.22-2.6 5.82-5.81 5.82z" fill="#868a91"/><path d="m1030.13 535.04h-78.3c-3.21 0-5.82-2.6-5.82-5.82 0-3.21 2.6-5.82 5.82-5.82h78.3c3.21 0 5.82 2.6 5.82 5.82s-2.61 5.82-5.82 5.82z" fill="#868a91"/><path d="m954.2 707.719h-6.51c-1.68 0-3.05-1.36-3.05-3.05v-6.51c0-1.68 1.36-3.05 3.05-3.05h6.51c1.68 0 3.05 1.36 3.05 3.05v6.51c0 1.69-1.37 3.05-3.05 3.05z" fill="#4d61fc"/><path d="m954.2 707.719h-6.51c-1.68 0-3.05-1.36-3.05-3.05v-6.51c0-1.68 1.36-3.05 3.05-3.05h6.51c1.68 0 3.05 1.36 3.05 3.05v6.51c0 1.69-1.37 3.05-3.05 3.05z" fill="#fff" opacity=".5"/><path d="m954.2 731.149h-6.51c-1.68 0-3.05-1.36-3.05-3.05v-6.51c0-1.68 1.36-3.05 3.05-3.05h6.51c1.68 0 3.05 1.36 3.05 3.05v6.51c0 1.69-1.37 3.05-3.05 3.05z" fill="#4d61fc"/><path d="m954.2 754.581h-6.51c-1.68 0-3.05-1.36-3.05-3.05v-6.51c0-1.68 1.36-3.05 3.05-3.05h6.51c1.68 0 3.05 1.36 3.05 3.05v6.51c0 1.69-1.37 3.05-3.05 3.05z" fill="#61656d"/><path d="m1056.89 704.479h-87.59c-1.69 0-3.06-1.37-3.06-3.06s1.37-3.06 3.06-3.06h87.59c1.69 0 3.06 1.37 3.06 3.06.01 1.69-1.36 3.06-3.06 3.06z" fill="#4d61fc"/><path d="m1056.89 727.909h-87.59c-1.69 0-3.06-1.37-3.06-3.06s1.37-3.06 3.06-3.06h87.59c1.69 0 3.06 1.37 3.06 3.06.01 1.69-1.36 3.06-3.06 3.06z" fill="#4d61fc"/><path d="m1056.89 751.341h-87.59c-1.69 0-3.06-1.37-3.06-3.06s1.37-3.06 3.06-3.06h87.59c1.69 0 3.06 1.37 3.06 3.06.01 1.69-1.36 3.06-3.06 3.06z" fill="#4d61fc"/><path d="m1056.89 704.479h-87.59c-1.69 0-3.06-1.37-3.06-3.06s1.37-3.06 3.06-3.06h87.59c1.69 0 3.06 1.37 3.06 3.06.01 1.69-1.36 3.06-3.06 3.06z" fill="#fff" opacity=".5"/><path d="m1056.89 727.909h-87.59c-1.69 0-3.06-1.37-3.06-3.06s1.37-3.06 3.06-3.06h87.59c1.69 0 3.06 1.37 3.06 3.06.01 1.69-1.36 3.06-3.06 3.06z" fill="#fff" opacity=".5"/><path d="m1056.89 751.341h-87.59c-1.69 0-3.06-1.37-3.06-3.06s1.37-3.06 3.06-3.06h87.59c1.69 0 3.06 1.37 3.06 3.06.01 1.69-1.36 3.06-3.06 3.06z" fill="#fff" opacity=".5"/><path d="m1120.52 704.479h-24.12c-1.69 0-3.06-1.37-3.06-3.06s1.37-3.06 3.06-3.06h24.12c1.69 0 3.06 1.37 3.06 3.06s-1.37 3.06-3.06 3.06z" fill="#4d61fc"/><path d="m1120.52 727.909h-24.12c-1.69 0-3.06-1.37-3.06-3.06s1.37-3.06 3.06-3.06h24.12c1.69 0 3.06 1.37 3.06 3.06s-1.37 3.06-3.06 3.06z" fill="#4d61fc"/><path d="m1120.52 751.341h-24.12c-1.69 0-3.06-1.37-3.06-3.06s1.37-3.06 3.06-3.06h24.12c1.69 0 3.06 1.37 3.06 3.06s-1.37 3.06-3.06 3.06z" fill="#4d61fc"/><path d="m625.18 806.33h-102.96c-1.67 0-3.03-1.361-3.03-3.031s1.36-3.029 3.03-3.029h102.96c1.67 0 3.03 1.359 3.03 3.029s-1.35 3.031-3.03 3.031z" fill="#4d61fc"/><path d="m561.62 834.58h-38.13c-2.37 0-4.29-1.92-4.29-4.29v-7.07c0-2.37 1.92-4.29 4.29-4.29h38.13c2.37 0 4.29 1.92 4.29 4.29v7.07c0 2.37-1.92 4.29-4.29 4.29z" fill="#fff" opacity=".15"/><path d="m625.18 806.33h-102.96c-1.67 0-3.03-1.361-3.03-3.031s1.36-3.029 3.03-3.029h102.96c1.67 0 3.03 1.359 3.03 3.029s-1.35 3.031-3.03 3.031z" fill="#fff" opacity=".5"/><path d="m790.9 806.33h-102.96c-1.67 0-3.03-1.361-3.03-3.031s1.36-3.029 3.03-3.029h102.96c1.67 0 3.03 1.359 3.03 3.029s-1.36 3.031-3.03 3.031z" fill="#4d61fc"/><path d="m727.33 834.58h-38.13c-2.37 0-4.29-1.92-4.29-4.29v-7.07c0-2.37 1.92-4.29 4.29-4.29h38.13c2.37 0 4.29 1.92 4.29 4.29v7.07c.01 2.37-1.92 4.29-4.29 4.29z" fill="#fff" opacity=".15"/><path d="m790.9 806.33h-102.96c-1.67 0-3.03-1.361-3.03-3.031s1.36-3.029 3.03-3.029h102.96c1.67 0 3.03 1.359 3.03 3.029s-1.36 3.031-3.03 3.031z" fill="#fff" opacity=".5"/><path d="m953.38 806.33h-102.96c-1.67 0-3.03-1.361-3.03-3.031s1.36-3.029 3.03-3.029h102.96c1.67 0 3.03 1.359 3.03 3.029-.01 1.67-1.36 3.031-3.03 3.031z" fill="#4d61fc"/><path d="m889.81 834.58h-38.13c-2.37 0-4.29-1.92-4.29-4.29v-7.07c0-2.37 1.92-4.29 4.29-4.29h38.13c2.37 0 4.29 1.92 4.29 4.29v7.07c0 2.37-1.92 4.29-4.29 4.29z" fill="#fff" opacity=".15"/><path d="m953.38 806.33h-102.96c-1.67 0-3.03-1.361-3.03-3.031s1.36-3.029 3.03-3.029h102.96c1.67 0 3.03 1.359 3.03 3.029-.01 1.67-1.36 3.031-3.03 3.031z" fill="#fff" opacity=".5"/><path d="m1113.88 806.33h-102.96c-1.67 0-3.03-1.361-3.03-3.031s1.36-3.029 3.03-3.029h102.96c1.67 0 3.03 1.359 3.03 3.029s-1.35 3.031-3.03 3.031z" fill="#4d61fc"/><path d="m1050.32 834.58h-38.13c-2.37 0-4.29-1.92-4.29-4.29v-7.07c0-2.37 1.92-4.29 4.29-4.29h38.13c2.37 0 4.29 1.92 4.29 4.29v7.07c0 2.37-1.92 4.29-4.29 4.29z" fill="#4d61fc"/><path d="m561.62 834.58h-38.13c-2.37 0-4.29-1.92-4.29-4.29v-7.07c0-2.37 1.92-4.29 4.29-4.29h38.13c2.37 0 4.29 1.92 4.29 4.29v7.07c0 2.37-1.92 4.29-4.29 4.29z" fill="#4d61fc"/><path d="m727.33 834.58h-38.13c-2.37 0-4.29-1.92-4.29-4.29v-7.07c0-2.37 1.92-4.29 4.29-4.29h38.13c2.37 0 4.29 1.92 4.29 4.29v7.07c.01 2.37-1.92 4.29-4.29 4.29z" fill="#4d61fc"/><path d="m889.81 834.58h-38.13c-2.37 0-4.29-1.92-4.29-4.29v-7.07c0-2.37 1.92-4.29 4.29-4.29h38.13c2.37 0 4.29 1.92 4.29 4.29v7.07c0 2.37-1.92 4.29-4.29 4.29z" fill="#4d61fc"/><path d="m1050.32 834.58h-38.13c-2.37 0-4.29-1.92-4.29-4.29v-7.07c0-2.37 1.92-4.29 4.29-4.29h38.13c2.37 0 4.29 1.92 4.29 4.29v7.07c0 2.37-1.92 4.29-4.29 4.29z" fill="#4d61fc"/><path d="m561.62 834.58h-38.13c-2.37 0-4.29-1.92-4.29-4.29v-7.07c0-2.37 1.92-4.29 4.29-4.29h38.13c2.37 0 4.29 1.92 4.29 4.29v7.07c0 2.37-1.92 4.29-4.29 4.29z" fill="#fff" opacity=".15"/><path d="m727.33 834.58h-38.13c-2.37 0-4.29-1.92-4.29-4.29v-7.07c0-2.37 1.92-4.29 4.29-4.29h38.13c2.37 0 4.29 1.92 4.29 4.29v7.07c.01 2.37-1.92 4.29-4.29 4.29z" fill="#fff" opacity=".15"/><path d="m889.81 834.58h-38.13c-2.37 0-4.29-1.92-4.29-4.29v-7.07c0-2.37 1.92-4.29 4.29-4.29h38.13c2.37 0 4.29 1.92 4.29 4.29v7.07c0 2.37-1.92 4.29-4.29 4.29z" fill="#fff" opacity=".15"/><path d="m561.62 834.58h-38.13c-2.37 0-4.29-1.92-4.29-4.29v-7.07c0-2.37 1.92-4.29 4.29-4.29h38.13c2.37 0 4.29 1.92 4.29 4.29v7.07c0 2.37-1.92 4.29-4.29 4.29z" fill="#fff" opacity=".15"/><path d="m727.33 834.58h-38.13c-2.37 0-4.29-1.92-4.29-4.29v-7.07c0-2.37 1.92-4.29 4.29-4.29h38.13c2.37 0 4.29 1.92 4.29 4.29v7.07c.01 2.37-1.92 4.29-4.29 4.29z" fill="#fff" opacity=".15"/><path d="m889.81 834.58h-38.13c-2.37 0-4.29-1.92-4.29-4.29v-7.07c0-2.37 1.92-4.29 4.29-4.29h38.13c2.37 0 4.29 1.92 4.29 4.29v7.07c0 2.37-1.92 4.29-4.29 4.29z" fill="#fff" opacity=".15"/><path d="m1050.32 834.58h-38.13c-2.37 0-4.29-1.92-4.29-4.29v-7.07c0-2.37 1.92-4.29 4.29-4.29h38.13c2.37 0 4.29 1.92 4.29 4.29v7.07c0 2.37-1.92 4.29-4.29 4.29z" fill="#fff" opacity=".15"/><path d="m1113.88 806.33h-102.96c-1.67 0-3.03-1.361-3.03-3.031s1.36-3.029 3.03-3.029h102.96c1.67 0 3.03 1.359 3.03 3.029s-1.35 3.031-3.03 3.031z" fill="#fff" opacity=".5"/><path d="m223.7 1064.38h1131.77c.22 0 .43-.22.43-.43 0-.22-.22-.43-.43-.43h-1131.77c-.22 0-.43.22-.43.43s.21.43.43.43z" fill="#b1b5ba"/><path d="m806.03 241.59c0-21.13-15.96-38.55-36.56-40.82v-.27h-4.53c-22.67 0-41.09 18.42-41.09 41.09s18.42 41.09 41.09 41.09h4.53v-.27c20.59-2.27 36.56-19.69 36.56-40.82z" fill="#858990"/><path d="m761.63 282.68c22.69 0 41.09-18.4 41.09-41.09s-18.4-41.09-41.09-41.09-41.09 18.4-41.09 41.09 18.4 41.09 41.09 41.09z" fill="#b1b5ba"/><path d="m761.63 278.149c20.19 0 36.56-16.37 36.56-36.56s-16.37-36.56-36.56-36.56-36.56 16.37-36.56 36.56 16.37 36.56 36.56 36.56z" fill="#fff"/><path d="m761.63 278.149c20.19 0 36.56-16.37 36.56-36.56s-16.37-36.56-36.56-36.56-36.56 16.37-36.56 36.56 16.37 36.56 36.56 36.56z" fill="#858990"/><path d="m761.63 278.149c20.19 0 36.56-16.37 36.56-36.56s-16.37-36.56-36.56-36.56-36.56 16.37-36.56 36.56 16.37 36.56 36.56 36.56z" fill="#fff" opacity=".9"/><path d="m761.64 205.029c.64 0 1.27 0 2 .09-19.23 1-34.56 16.96-34.56 36.47 0 19.5 15.33 35.47 34.56 36.47-.64 0-1.27.09-2 .09-20.23 0-36.56-16.33-36.56-36.56s16.33-36.56 36.56-36.56z" fill="#858990"/><path d="m761.99 244.399-12.15-24.13c-.46-.91-.09-2.09.82-2.54.91-.46 2.09-.09 2.54.82l10.43 20.77 13.88-6.8c.91-.46 2.09-.09 2.54.91.46.91.09 2.09-.91 2.54z" fill="#4d61fc"/><path d="m792.92 260.36c3.35-5.53 5.26-11.97 5.26-18.87 0-20.23-16.33-36.56-36.56-36.56-.99 0-2 .09-2.99.09z" fill="#fff" opacity=".5"/><path d="m753.1 206.029c-1.81.46-3.54 1-5.17 1.63l37.83 61.32c1.45-1.27 2.81-2.72 4.08-4.27z" fill="#fff" opacity=".5"/><path d="m248.56 603.37h121.49v-154.71h-121.49z" fill="#fff"/><path d="m264.76 587.811h89.09v-123.59h-89.09z" fill="#ddd"/><path d="m373.58 448.67h-3.53v154.71h3.53z" fill="#dadddf"/><path d="m294.54 542.991c10.66 0 19.3-8.64 19.3-19.3s-8.64-19.3-19.3-19.3-19.3 8.64-19.3 19.3 8.64 19.3 19.3 19.3z" fill="#4d61fc"/><path d="m342.77 574.44-20.1-31.46-20.1 31.12z" fill="#868a91"/><path d="m298.96 519.41h41.74v-41.74h-41.74z" fill="#000" opacity=".2"/><path d="m596.39 452.7c-.46.07-.62.56-.56 1.02.07.46.56.62 1.02.56l3.65-.76c1.81-.49 2.96-2.3 2.46-4.11-.32-1.16-1.18-2.05-2.23-2.41-1.41-.48-2.31-1.85-2.41-3.33-.04-.65-.07-1.18-.11-1.33-1.98-7.59-1.82 10.36-1.82 10.36z" fill="#f99a9a"/><path d="m602.96 449.411c-.25-.92-.84-1.66-1.6-2.11.04.1.07.2.1.3.49 1.81-.66 3.61-2.46 4.1l-2.61.54v.44c-.46.07-.62.56-.56 1.02.07.46.56.62 1.02.56l3.65-.75c1.8-.49 2.95-2.29 2.46-4.1z" fill="#000" opacity=".0225"/><path d="m542.19 1046.23-53.92 1.33 21.52-15.37c3.57-2.58 5.82-6.65 5.98-11.05l.75-16.87 29.33.08z" fill="#fb9c9c"/><path d="m536.2 1026.54v-.33c.17-1.91-1.17-3.57-2.99-3.82l-17.2-2.5.17-3.4h28.75l-2.58 28.58-23.52-2.58 7.73-3.07c5.41-2.16 9.14-7.15 9.64-12.88z" fill="#000" opacity=".15"/><path d="m545.92 1036.67v21.02c0 3.4-2.74 6.15-6.15 6.15h-71.45c-1.41 0-2.58-1.17-2.58-2.58 0-4.98 3.24-9.47 7.98-11.05l16.12-5.32 20.44-15.87c2.08-1.66 5.07-1.58 7.15.17l9.05 7.73c1.33 1.17 3.15 1.5 4.82 1l11.47-3.57c1.65-.41 3.15.74 3.15 2.32z" fill="#3f4249"/><path d="m539.77 1063.84h-71.45c-1.41 0-2.58-1.17-2.58-2.58 0-.92.08-1.75.33-2.58h79.76c-.49 2.92-2.98 5.16-6.06 5.16z" fill="#000"/><path d="m510.7 1037.42c.17 0 .33-.08.42-.17.25-.25.25-.67 0-.92l-4.32-4.65c-.25-.25-.67-.25-.92 0s-.25.67 0 .92l4.32 4.65c.17.09.33.17.5.17z" fill="#fff"/><path d="m507.29 1040.09c.17 0 .33-.08.42-.17.25-.25.25-.67 0-.92l-4.32-4.65c-.25-.25-.67-.25-.92 0s-.25.67 0 .92l4.32 4.65c.16.08.33.17.5.17z" fill="#fff"/><path d="m503.88 1042.74c.17 0 .33-.08.42-.17.25-.25.25-.67 0-.92l-4.32-4.65c-.25-.25-.67-.25-.92 0s-.25.67 0 .92l4.32 4.65c.09.09.25.17.5.17z" fill="#fff"/><path d="m613.32 1046.23 53.92 1.33-21.52-15.37c-3.57-2.58-5.82-6.65-5.98-11.05l-.75-16.87-29.33.08z" fill="#fb9c9c"/><path d="m619.31 1026.54v-.33c-.17-1.91 1.17-3.57 2.99-3.82l17.2-2.5-.17-3.4h-28.75l2.58 28.58 23.52-2.58-7.73-3.07c-5.41-2.16-9.14-7.15-9.64-12.88z" fill="#000" opacity=".15"/><path d="m641.2 680.92v335.57h-31.49l-27.41-273.59c-.17-1.83-1.66-3.15-3.49-3.15-1.75 0-3.24 1.33-3.4 3.15l-29.17 273.59h-31.49l10.9-333.66z" fill="#4d61fc"/><path d="m642.03 1016.49h-33.56l-.67-6.9h34.15z" fill="#4d61fc"/><path d="m642.03 1016.49h-33.56l-.67-6.9h34.15z" fill="#fff" opacity=".2"/><path d="m642.03 1016.49h-13.94l-.34-6.98 14.2.08z" fill="#000" opacity=".2"/><path d="m609.59 1036.67v21.02c0 3.4 2.74 6.15 6.15 6.15h71.45c1.41 0 2.58-1.17 2.58-2.58 0-4.98-3.24-9.47-7.98-11.05l-16.12-5.32-20.44-15.87c-2.08-1.66-5.07-1.58-7.15.17l-9.05 7.73c-1.33 1.17-3.15 1.5-4.82 1l-11.47-3.57c-1.65-.41-3.15.74-3.15 2.32z" fill="#3f4249"/><path d="m615.74 1063.84h71.45c1.41 0 2.58-1.17 2.58-2.58 0-.92-.08-1.75-.33-2.58h-79.76c.49 2.92 2.98 5.16 6.06 5.16z" fill="#000"/><path d="m644.81 1037.42c-.17 0-.33-.08-.42-.17-.25-.25-.25-.67 0-.92l4.32-4.65c.25-.25.67-.25.92 0s.25.67 0 .92l-4.32 4.65c-.17.09-.33.17-.5.17z" fill="#fff"/><path d="m648.22 1040.09c-.17 0-.33-.08-.42-.17-.25-.25-.25-.67 0-.92l4.32-4.65c.25-.25.67-.25.92 0s.25.67 0 .92l-4.32 4.65c-.16.08-.33.17-.5.17z" fill="#fff"/><path d="m651.63 1042.74c-.17 0-.33-.08-.42-.17-.25-.25-.25-.67 0-.92l4.32-4.65c.25-.25.67-.25.92 0s.25.67 0 .92l-4.32 4.65c-.09.09-.25.17-.5.17z" fill="#fff"/><path d="m527.92 1012.73 30.61-258.36c1-8.3 8.05-14.54 16.37-14.54h3.9c-1.75 0-3.24 1.33-3.4 3.15l-29 272.09z" fill="#000" opacity=".2"/><path d="m547.07 1016.49h-19.69l.91-6.9h19.45z" fill="#000" opacity=".15"/><path d="m641.24 683.359.05 326.061-13.54.08-3.81-326.141z" fill="#000" opacity=".2"/><path d="m597 428.33 3.26 37.87c.47 5.47-2.99 10.5-8.26 12.03l-2.38.69 1.99 17.41-16.87-2.27-19.41 1.53 2.15-46.13 21.54-20.63z" fill="#f99a9a"/><path d="m598.571 417.071c1.33 5.76 4.4 9.21-.73 12.14l-2.22 1.27c-2.1 1.2-3.44 3.39-3.55 5.81-.18 3.77-1.9 6.17-5.57 7.36-.46.15-.72.64-.62 1.11l.279 1.26.911 4.85c.18 1.08-.5 2.11-1.57 2.37-1.04.25-2.1-.34-2.44-1.36l-1.42-3.25-6.01 5.45-2.651 17.47c-.56 3.71-3.75 6.46-7.5 6.47l-9.31.02-6.299-9.53c-6.6-9.99-11.25-19.1-11.22-30.35 0 0 9.689-5.57 13.069-7.01l-.5-5.23c-.52-5.42-1.039-3.49 4.121-5.23l10.079-3.39c10.46-3.53 19.061-4.21 29.781-1.6 4.92 1.2 3.37 1.37 3.37 1.37z" fill="#21252b"/><path d="m785.78 492.199s3.31 2.33-1.34 8.29-21.41 12.84-21.41 12.84l2.83-22.04z" fill="#f69797"/><path d="m750.1 497.249 2.71-6.96c1.19-3.06 2.93-5.88 5.14-8.31l6.46-7.13c.44-.65 1.32-.82 1.98-.4l.04.02c1.8 1.17 2.54 3.44 1.78 5.45l-4.03 6.22c-.21.32-.13.74.17.97.28.21.66.19.92-.04l21.85-19.67c.91-.81 2.31-.7 3.08.23.68.83.65 2.03-.08 2.82l-9.21 9.95s5.24-.4 3.36 5.26c0 0 4.43 3.41-.23 9.37-4.65 5.96-21.02 18.31-21.02 18.31l-13.18 19.12-13.96-12.09z" fill="#f69797"/><path d="m777.12 492.59c-.14 0-.28-.06-.39-.17-.19-.21-.17-.54.04-.73l7.15-6.42c.21-.19.54-.17.73.04s.17.54-.04.73l-7.15 6.42c-.1.09-.22.13-.34.13z" fill="#000" opacity=".09"/><path d="m778.48 499.07c-.14 0-.28-.06-.39-.17-.19-.21-.17-.54.04-.73l7.15-6.42c.21-.19.54-.17.73.04s.17.54-.04.73l-7.15 6.42c-.09.08-.22.13-.34.13z" fill="#000" opacity=".09"/><path d="m773.95 487.41c-.14 0-.28-.06-.39-.17-.19-.21-.17-.54.04-.73l7.15-6.42c.21-.19.54-.17.73.04s.17.54-.04.73l-7.15 6.42c-.09.08-.22.13-.34.13z" fill="#000" opacity=".09"/><path d="m784.43 500.49c-4.65 5.96-21.41 12.84-21.41 12.84l-4.97 7.21-2.9-2.36 5.27-7.66c.47-.69 1.15-1.2 1.94-1.47l6.95-2.39c6.31-2.05 13.53-5.63 17.52-10.93.01 0 .09 1.26-2.4 4.76z" fill="#000" opacity=".2"/><path d="m555.32 490.09h35.3c.79 0 1.53.41 1.94 1.09l3.06 5.04 33.77 4.36c7.7.99 14.81 4.65 20.11 10.33l45.51 48.84 47.52-51.84 16.56 13.48-56.07 80.27c-5.22 7.48-15.81 8.69-22.59 2.58l-39.25-35.36v116.22h-115.63l-4.32-48.37h-30.41c-8.79 0-15.33-8.12-13.46-16.71l21.35-97.94c2.1-9.64 9.75-17.1 19.44-18.95l32.2-6.18 2.98-5.64c.38-.76 1.15-1.22 1.99-1.22z" fill="#3f4249"/><path d="m755.15 518.189-59.12 77.06c-2.97 4.26-8.67 10.23-15.7 8.91l.09.08c6.78 6.1 17.37 4.89 22.59-2.58l56.07-80.27z" fill="#000" opacity=".2"/><path d="m515.71 567.83-1.33.12 7.77 87.03 1.33-.12z" fill="#21252b"/><path d="m508.73 611.061 6.35-43.17 4.26 47.68h-6.72c-2.4 0-4.24-2.14-3.89-4.51z" fill="#000" opacity=".2"/><path d="m595.51 408.471c-4.61-1.65-8.72-.9-11.36 1.08-1.59 1.4-3.54 1.21-5.35-.25-2.75-2.29-7.21-5.95-14.05-4.03-8.96 2.37-11.31 8.52-12.11 11.71-.23 1.43-1.27 2.43-2.43 3.02-3.91 1.91-11.36 7.64-11.59 16.96-.48 16.4 30.37 11.88 30.37 11.88-1.51-3.36.19-7.28 3.62-8.58l25.23-11.05c8.14-3.61 6.86-17.31-2.33-20.74z" fill="#21252b"/><path d="m575.141 452.891.469 1.19s2.491.76 4.981 1.15l-5.861 2.86z" fill="#000" opacity=".15"/><path d="m581.95 449.639c.99 3.37 2.07 5.83-2.42 5.86-8.52.02-10.23-11.22-5.49-13.81 4.17-2.25 5.96 1.81 5.96 1.81s.01-.01 1.95 6.14z" fill="#fc9d9d"/><path d="m579.46 448.321c-.23-1.18-.46-2.21-1.12-3.06-.65-.7-1.29-1.25-2.04-1.35-.75-.09-1.49.11-2.34.77-.14.16-.27.47-.08.9.17.29.47.27.75.09.56-.49 1.15-.68 1.6-.56.45-.03.78.39 1.27.96.65.7.91 2.18.93 2.48l.22 1.03c.02.3.33.42.63.4s.42-.33.4-.63z" fill="#000" opacity=".3"/><path d="m601.96 447.841c-.41 0-.78-.29-.87-.71l-2.93-12.96c-.1-.48.21-.96.69-1.06.49-.1.96.21 1.06.69l2.93 12.96c.1.48-.21.96-.69 1.06-.06.02-.12.02-.19.02z" fill="#21252b"/><path d="m600.08 438.869-20.07 4.45.39 1.75 20.07-4.46z" fill="#21252b"/><path d="m547.07 1016.49h-33.48l.5-6.9h33.65z" fill="#4d61fc"/><path d="m547.07 1016.49h-33.48l.5-6.9h33.65z" fill="#fff" opacity=".2"/><path d="m547.07 1016.49h-19.61l.83-6.9h19.45z" fill="#000" opacity=".2"/><path d="m595.62 495.551h-35.97v1.34h35.97z" fill="#21252b"/><path d="m641.18 568.88-1.71-1.51c-4.47-3.94-11.51-.9-11.71 5.06l-3.81 112.67h17.23z" fill="#000" opacity=".2"/><path d="m695.01 559.739-1.74 1.89c-.86.94-2.37.83-3.08-.22l-17.5-25.63z" fill="#000" opacity=".2"/><path d="m589.63 478.91-7.4-.15c-2.2-.04-3.74 2.14-2.96 4.2l2.7 7.13h8.95z" fill="#000" opacity=".15"/></svg>